<svg xmlns="http://www.w3.org/2000/svg" width="430" height="430" style="width:100%;height:100%;transform:translate3d(0,0,0);content-visibility:visible" viewBox="0 0 430 430"><defs><path id="b" style="display:none"/><path id="f" style="display:none"/><path id="h" fill="red" d="M-1.94-157h3.88c33.734 0 60.747 27.969 59.574 61.682l-1.94 55.781C58.458-7.442 32.115 18 0 18c-32.115 0-58.458-25.442-59.574-57.537l-1.94-55.781C-62.687-129.031-35.674-157-1.94-157z" style="display:block" transform="translate(215 215)"/><path id="j" fill="red" d="M-1.94-157h3.88c33.734 0 60.747 27.969 59.574 61.682l-1.94 55.781C58.458-7.442 32.115 18 0 18c-32.115 0-58.458-25.442-59.574-57.537l-1.94-55.781C-62.687-129.031-35.674-157-1.94-157z" style="display:block" transform="translate(215 215)"/><path id="k" fill="red" d="M33.88 26.69h7.62c45.84 0 83 37.16 83 83v27.76c0 7.62-5.71 14.03-13.28 14.9l-29.04 3.36a85.26 85.26 0 0 0-23.07 6.03c-18.91 7.91-39 11.88-59.11 11.92h-.3c-20.1 0-40.2-3.93-59.12-11.8l-.2-.08c-7.69-3.2-15.79-5.3-24.07-6.26l-27.53-3.17c-7.57-.87-13.28-7.28-13.28-14.9v-27.76c0-45.84 37.16-83 83-83h7.63" style="display:block" transform="translate(215 215)"/><path id="m" fill="red" d="M33.88 26.69h7.62c45.84 0 83 37.16 83 83v27.76c0 7.62-5.71 14.03-13.28 14.9l-29.04 3.36a85.26 85.26 0 0 0-23.07 6.03c-18.91 7.91-39 11.88-59.11 11.92h-.3c-20.1 0-40.2-3.93-59.12-11.8l-.2-.08c-7.69-3.2-15.79-5.3-24.07-6.26l-27.53-3.17c-7.57-.87-13.28-7.28-13.28-14.9v-27.76c0-45.84 37.16-83 83-83h7.63" style="display:block" transform="translate(215 215)"/><path id="u" style="display:none"/><path id="q" style="display:none"/><path id="s" style="display:none"/><path id="d" style="display:none"/><path id="e" style="display:none"/><path id="l" fill="#F24C00" d="M248.88 241.69h7.62c45.84 0 83 37.16 83 83v27.76c0 7.62-5.71 14.03-13.28 14.9l-29.04 3.36a85.26 85.26 0 0 0-23.07 6.03c-18.91 7.91-39 11.88-59.11 11.92h-.3c-20.1 0-40.2-3.93-59.12-11.8l-.2-.08c-7.69-3.2-15.79-5.3-24.07-6.26l-27.53-3.17c-7.57-.87-13.28-7.28-13.28-14.9v-27.76c0-45.84 37.16-83 83-83h7.63" style="display:block"/><path id="o" style="display:none"/><path id="r" style="display:none"/><mask id="N" mask-type="alpha"><g filter="url(#a)"><path fill="#fff" d="M0 0h430v430H0z" opacity="0"/><use xmlns:ns1="http://www.w3.org/1999/xlink" ns1:href="#b"/></g></mask><mask id="M" mask-type="alpha"><g filter="url(#c)"><path fill="#fff" d="M0 0h430v430H0z" opacity="0"/><use xmlns:ns2="http://www.w3.org/1999/xlink" ns2:href="#d"/></g></mask><mask id="L" mask-type="alpha"><use xmlns:ns3="http://www.w3.org/1999/xlink" ns3:href="#e"/></mask><mask id="K" mask-type="alpha"><use xmlns:ns4="http://www.w3.org/1999/xlink" ns4:href="#f"/></mask><mask id="I" mask-type="alpha"><g filter="url(#g)"><path fill="#fff" d="M0 0h430v430H0z" opacity="0"/><use xmlns:ns5="http://www.w3.org/1999/xlink" ns5:href="#h"/></g></mask><mask id="H" mask-type="alpha"><g filter="url(#i)"><path fill="#fff" d="M0 0h430v430H0z" opacity="0"/><use xmlns:ns6="http://www.w3.org/1999/xlink" ns6:href="#j"/></g></mask><mask id="G" mask-type="alpha"><use xmlns:ns7="http://www.w3.org/1999/xlink" ns7:href="#k"/></mask><mask id="F" mask-type="alpha"><use xmlns:ns8="http://www.w3.org/1999/xlink" ns8:href="#l"/></mask><mask id="E" mask-type="alpha"><use xmlns:ns9="http://www.w3.org/1999/xlink" ns9:href="#m"/></mask><mask id="C" mask-type="alpha"><g filter="url(#n)"><path fill="#fff" d="M0 0h430v430H0z" opacity="0"/><use xmlns:ns10="http://www.w3.org/1999/xlink" ns10:href="#o"/></g></mask><mask id="B" mask-type="alpha"><g filter="url(#p)"><path fill="#fff" d="M0 0h430v430H0z" opacity="0"/><use xmlns:ns11="http://www.w3.org/1999/xlink" ns11:href="#q"/></g></mask><mask id="A" mask-type="alpha"><use xmlns:ns12="http://www.w3.org/1999/xlink" ns12:href="#r"/></mask><mask id="z" mask-type="alpha"><use xmlns:ns13="http://www.w3.org/1999/xlink" ns13:href="#s"/></mask><mask id="y" mask-type="alpha"><g filter="url(#t)"><path fill="#fff" d="M0 0h430v430H0z" opacity="0"/><use xmlns:ns14="http://www.w3.org/1999/xlink" ns14:href="#u"/></g></mask><filter id="a" width="100%" height="100%" x="0%" y="0%" filterUnits="objectBoundingBox"><feComponentTransfer in="SourceGraphic"><feFuncA tableValues="1.0 0.0" type="table"/></feComponentTransfer></filter><filter id="c" width="100%" height="100%" x="0%" y="0%" filterUnits="objectBoundingBox"><feComponentTransfer in="SourceGraphic"><feFuncA tableValues="1.0 0.0" type="table"/></feComponentTransfer></filter><filter id="g" width="100%" height="100%" x="0%" y="0%" filterUnits="objectBoundingBox"><feComponentTransfer in="SourceGraphic"><feFuncA tableValues="1.0 0.0" type="table"/></feComponentTransfer></filter><filter id="i" width="100%" height="100%" x="0%" y="0%" filterUnits="objectBoundingBox"><feComponentTransfer in="SourceGraphic"><feFuncA tableValues="1.0 0.0" type="table"/></feComponentTransfer></filter><filter id="n" width="100%" height="100%" x="0%" y="0%" filterUnits="objectBoundingBox"><feComponentTransfer in="SourceGraphic"><feFuncA tableValues="1.0 0.0" type="table"/></feComponentTransfer></filter><filter id="p" width="100%" height="100%" x="0%" y="0%" filterUnits="objectBoundingBox"><feComponentTransfer in="SourceGraphic"><feFuncA tableValues="1.0 0.0" type="table"/></feComponentTransfer></filter><filter id="t" width="100%" height="100%" x="0%" y="0%" filterUnits="objectBoundingBox"><feComponentTransfer in="SourceGraphic"><feFuncA tableValues="1.0 0.0" type="table"/></feComponentTransfer></filter><clipPath id="v"><path d="M0 0h430v430H0z"/></clipPath><clipPath id="J"><path d="M0 0h430v430H0z"/></clipPath><clipPath id="D"><path d="M0 0h430v430H0z"/></clipPath><clipPath id="w"><path d="M0 0h430v430H0z"/></clipPath><clipPath id="x"><path d="M0 0h430v430H0z"/></clipPath></defs><g clip-path="url(#v)"><g clip-path="url(#w)" style="display:none"><g clip-path="url(#x)" mask="url(#y)" style="display:none"><path class="quaternary" style="display:none"/><g mask="url(#z)" style="display:none"><path class="secondary"/><path class="senary" style="mix-blend-mode:multiply"/><path class="secondary"/></g><g mask="url(#A)" style="display:none"><path class="quinary" style="mix-blend-mode:multiply"/><path class="quinary" style="mix-blend-mode:multiply"/></g><path class="tertiary" style="display:none"/><path class="tertiary" style="display:none"/><g style="mix-blend-mode:multiply;display:none"><path class="tertiary" style="mix-blend-mode:multiply"/></g><g mask="url(#B)" style="mix-blend-mode:multiply;display:none"><path class="tertiary"/></g><path class="quinary" style="mix-blend-mode:multiply;display:none"/><path class="secondary" style="mix-blend-mode:multiply;display:none"/><path class="quaternary" style="mix-blend-mode:multiply;display:none"/><g fill="none" style="display:none"><path class="primary"/><path class="primary"/><path class="primary"/><path class="primary"/><path class="primary"/></g><path fill="none" class="primary" style="display:none"/><path fill="none" class="primary" style="display:none"/><path fill="none" class="primary" style="display:none"/></g><g style="display:none"><path class="secondary"/><path class="secondary" style="mix-blend-mode:multiply"/></g><path class="secondary" style="display:none"/><path class="secondary" style="mix-blend-mode:multiply;display:none"/><g fill="none" style="display:none"><path class="primary"/><path class="primary"/></g><path class="quaternary" style="display:none"/><g mask="url(#C)" style="mix-blend-mode:multiply;display:none"><path class="quaternary"/></g><path fill="none" class="primary" style="display:none"/><path fill="none" class="septenary" style="display:none"/></g><g clip-path="url(#D)" style="display:block"><path fill="#EBE6EF" d="m239.566 250.619 8.645-8.674 8.289-.255c45.84 0 83 37.16 83 83v27.76c0 7.62-5.71 14.03-13.28 14.9l-29.04 3.36a85.26 85.26 0 0 0-23.07 6.03c-18.91 7.91-39 11.88-59.11 11.92h-.3c-20.1 0-40.2-3.93-59.12-11.8l-.2-.08c-7.69-3.2-15.79-5.3-24.07-6.26l-27.53-3.17c-7.57-.87-13.28-7.28-13.28-14.9v-27.76c0-45.84 37.16-83 83-83l7.676.003 6.939 6.762" class="quaternary" style="display:block"/><g mask="url(#E)" style="display:block"><path fill="#FFC738" d="M142.37 247.73v87.36h32.6l1.125-59.245-22.25-32.245" class="secondary"/><path fill="#F24C00" d="m-72.5 187.51-.13-67.42H72.63l.13 67.28" class="senary" style="mix-blend-mode:multiply" transform="translate(215 215)"/><path fill="#FFC738" d="m279.78 241.61-24.72 33.925-.03 59.555h32.6v-87.36" class="secondary"/></g><g mask="url(#F)" style="display:block"><path fill="#646E78" d="m-38.55 22.883-22.483 5.811 40.283 58.309L0 60.253m.19 0 20.75 26.75 43.848-60.556-24.338-8.774" class="quinary" style="mix-blend-mode:multiply" transform="translate(215 215)"/></g><path fill="#F9C9C0" d="M248.88 222.44v18.94L215 275.25l-33.87-33.87v-18.93" class="tertiary" style="display:block"/><path fill="#F9C9C0" d="m275.888 137.692-1.314 37.771C273.458 207.558 247.115 233 215 233c-32.115 0-58.458-25.442-59.574-57.537l-1.349-38.791" class="tertiary" style="display:block"/><g opacity=".5" style="mix-blend-mode:multiply;display:block"><path fill="#F9C9C0" d="M-13.677-46.159c-8.1.014-15.248.03-21.194.047.55 15.63 1.18 34.74 1.18 34.74.56 16.04 7.42 30.43 18.16 40.8a60.55 60.55 0 0 0 7.55 6.191 59.434 59.434 0 0 0 33.87 10.54c3.053 0 6.051-.235 8.982-.679-52.815-11.077-51.342-68.651-48.548-91.639z" class="tertiary" opacity="1" style="mix-blend-mode:multiply" transform="translate(188.904 187.396)"/></g><g fill="#FFC738" style="display:block"><path d="M241.599 52.158v-7.759a3 3 0 0 0-3-3h-46a3 3 0 0 0-3 3v7.109c-28.212 10.334-48.388 37.639-48.486 69.41h-.005v14.609l73.892-7 73.789 7v-14.609c0-31.36-19.62-58.05-47.19-68.76z" class="secondary"/><path d="M331.358-16.979v14.631h25.247v-13.074c0-.918-.058-1.84-.154-2.753-4.394-41.879 23.397-59.429 23.397-59.429v-8.755c-28.21 10.319-48.38 37.62-48.49 69.38z" class="secondary" opacity=".5" style="mix-blend-mode:multiply" transform="translate(-190.25 137.875)"/></g><g fill="none" stroke="#121331" stroke-linecap="round" stroke-linejoin="round" stroke-width="7" mask="url(#G)" style="display:block"><path d="M142.37 247.73v87.36h32.6v-61.24m-32.6 98.66v-37.42h145.26v37.28" class="primary"/><path d="M255.03 274.11v60.98h32.6v-87.36m-133.18-3.847 39.8 58.12 20.75-26.75" class="primary"/><path d="m215.19 275.253 20.75 26.75 39.76-58.08" class="primary"/></g><g mask="url(#H)" opacity=".5" style="mix-blend-mode:multiply;display:block"><path fill="#F9C9C0" d="M248.56 230.66v-11.34h-67.11v22.17l9.7 9.7c4.32-1.24 8.76-2.28 13.32-3.14 34.85-6.56 44.09-17.39 44.09-17.39z" class="tertiary" opacity="1"/></g><g opacity=".5" style="mix-blend-mode:multiply;display:block"><path fill="#646E78" d="M166.4 261.11c7.58-4.08 15.88-7.4 24.75-9.92l-9.7-9.7h-7.94c-1.64 0-3.26.05-4.88.14-1.61.1-3.21.24-4.8.42-.79.09-1.58.2-2.37.31-2.36.35-4.69.79-6.98 1.33h-.01l11.93 17.42z" class="quinary" opacity="1"/></g><g opacity=".5" style="mix-blend-mode:multiply;display:block"><path fill="#FFC738" d="M142.38 279.32c6.73-7.19 14.84-13.27 24.02-18.21l-11.93-17.42c-.64.15-1.27.31-1.9.47-.51.13-1.01.27-1.51.41-.56.15-1.12.32-1.68.49-.56.17-1.12.34-1.67.52-1.81.59-3.58 1.24-5.33 1.95v31.79z" class="secondary" opacity="1"/></g><g opacity=".5" style="mix-blend-mode:multiply;display:block"><path fill="#EBE6EF" d="M121 365.13v-29.56c0-23.09 7.94-41.89 21.38-56.25v-31.79c-30.42 12.3-51.88 42.13-51.88 76.95v27.77c0 7.61 5.71 14.02 13.28 14.9l17.74 2.04c-.34-1.3-.52-2.66-.52-4.06z" class="quaternary" opacity="1"/></g><g mask="url(#I)" style="display:block"><path fill="none" stroke="#121331" stroke-linecap="round" stroke-linejoin="round" stroke-width="7" d="M248.88 222.44v18.94L215 275.25l-33.87-33.87v-18.93" class="primary"/></g><path fill="none" stroke="#121331" stroke-linecap="round" stroke-linejoin="round" stroke-width="7" d="M33.88 26.69h7.62c45.84 0 83 37.16 83 83v27.76c0 7.62-5.71 14.03-13.28 14.9l-29.04 3.36a85.26 85.26 0 0 0-23.07 6.03c-18.91 7.91-39 11.88-59.11 11.92h-.3c-20.1 0-40.2-3.93-59.12-11.8l-.2-.08c-7.69-3.2-15.79-5.3-24.07-6.26l-27.53-3.17c-7.57-.87-13.28-7.28-13.28-14.9v-27.76c0-45.84 37.16-83 83-83h7.63m94.587-99.1-1.143 32.873C58.458-7.442 32.115 18 0 18c0 0 0 0 0 0-32.115 0-58.458-25.442-59.574-57.537l-1.179-33.893" class="primary" style="display:block" transform="translate(215 215)"/><g fill="#FFC738" style="display:block"><path d="M294.569 140.522s-33.569.124-80.483.124c-46.299 0-79.508.146-79.508.146a2.93 2.93 0 0 1-2.931-2.931v-13.408a2.93 2.93 0 0 1 2.931-2.931s32.137-.146 77.901-.146c47.449 0 82.09-.124 82.09-.124a2.93 2.93 0 0 1 2.931 2.931v13.408a2.93 2.93 0 0 1-2.931 2.931z" class="secondary"/><path fill-opacity=".5" d="M79.569-74.478S46-74.354-.914-74.354c-46.299 0-79.508.146-79.508.146a2.93 2.93 0 0 1-2.931-2.931v-13.408a2.93 2.93 0 0 1 2.931-2.931s32.137-.146 77.901-.146c47.449 0 82.09-.124 82.09-.124a2.93 2.93 0 0 1 2.931 2.931v13.408a2.93 2.93 0 0 1-2.931 2.931z" class="secondary" style="mix-blend-mode:multiply" transform="translate(215 215)"/></g><g fill="none" stroke="#121331" stroke-linecap="round" stroke-linejoin="round" stroke-width="7" style="display:block"><path d="M241.344 52.509c27.567 10.714 47.098 37.508 47.098 68.867m-147.737 0c0-31.87 20.173-59.026 48.453-69.378" class="primary"/><path d="M294.569 140.522s-33.569.124-80.483.124c-46.299 0-79.508.146-79.508.146a2.93 2.93 0 0 1-2.931-2.931v-13.408a2.93 2.93 0 0 1 2.931-2.931s32.137-.146 77.901-.146c47.449 0 82.09-.124 82.09-.124a2.93 2.93 0 0 1 2.931 2.931v13.408a2.93 2.93 0 0 1-2.931 2.931zM189.25 79.5V41.75h52v37.5m-25.75 12.5v-50" class="primary"/></g></g><g clip-path="url(#J)" style="display:none"><path class="quaternary" style="display:none"/><g mask="url(#K)" style="display:none"><path class="secondary"/><path class="senary" style="mix-blend-mode:multiply"/><path class="secondary"/></g><g mask="url(#L)" style="display:none"><path class="quinary" style="mix-blend-mode:multiply"/><path class="quinary" style="mix-blend-mode:multiply"/></g><g mask="url(#M)" style="mix-blend-mode:multiply;display:none"><path class="quaternary"/></g><path class="tertiary" style="display:none"/><g mask="url(#N)" style="mix-blend-mode:multiply;display:none"><path class="tertiary"/></g><g fill="none" style="display:none"><path class="primary"/><path class="primary"/></g><g fill="none" style="display:none"><path class="primary"/><path class="primary"/><path class="primary"/><path class="primary"/><path class="primary"/></g><g style="display:none"><path class="tertiary"/><path class="tertiary" style="mix-blend-mode:multiply"/></g><path fill="none" class="primary" style="display:none"/><g style="display:none"><path class="secondary"/><path class="secondary" style="mix-blend-mode:multiply"/></g><g style="display:none"><path fill="none" class="primary"/><path class="secondary"/><path fill="none" class="primary"/><path class="secondary" style="mix-blend-mode:multiply"/></g></g></g></svg>